<svg width="20" height="20" viewBox="0 0 20 20" fill="none" xmlns="http://www.w3.org/2000/svg">
<path d="M9.99996 1.66666C14.6023 1.66666 18.3333 5.39762 18.3333 9.99999C18.3333 14.6024 14.6023 18.3333 9.99996 18.3333C5.39759 18.3333 1.66663 14.6024 1.66663 9.99999C1.66663 5.39762 5.39759 1.66666 9.99996 1.66666ZM9.99996 2.91666C6.08794 2.91666 2.91663 6.08797 2.91663 9.99999C2.91663 13.912 6.08794 17.0833 9.99996 17.0833C13.912 17.0833 17.0833 13.912 17.0833 9.99999C17.0833 6.08797 13.912 2.91666 9.99996 2.91666ZM9.99996 5.83332C10.3451 5.83332 10.625 6.11315 10.625 6.45832V9.37499H13.5416C13.8868 9.37499 14.1666 9.65481 14.1666 9.99999C14.1666 10.3452 13.8868 10.625 13.5416 10.625H10.625V13.5417C10.625 13.8868 10.3451 14.1667 9.99996 14.1667C9.65478 14.1667 9.37496 13.8868 9.37496 13.5417V10.625H6.45829C6.11311 10.625 5.83329 10.3452 5.83329 9.99999C5.83329 9.65481 6.11311 9.37499 6.45829 9.37499H9.37496V6.45832C9.37496 6.11315 9.65478 5.83332 9.99996 5.83332Z" fill="white"/>
</svg>
