<svg width="20" height="20" viewBox="0 0 20 20" fill="none" xmlns="http://www.w3.org/2000/svg">
<path d="M5.15883 18.2116C4.74539 18.5091 4.16882 18.2136 4.16882 17.7043V5.20766C4.16882 3.71189 5.38139 2.49933 6.87716 2.49933H13.1258C14.6216 2.49933 15.8341 3.71189 15.8341 5.20766V17.7043C15.8341 18.2136 15.2576 18.5091 14.8441 18.2116L10.0015 14.7275L5.15883 18.2116ZM14.5841 5.20766C14.5841 4.40225 13.9312 3.74933 13.1258 3.74933H6.87716C6.07174 3.74933 5.41882 4.40225 5.41882 5.20766V16.4847L9.63647 13.4502C9.85453 13.2933 10.1484 13.2933 10.3665 13.4502L14.5841 16.4847V5.20766Z" fill="white"/>
</svg>
