<svg width="15" height="15" viewBox="0 0 15 15" fill="none" xmlns="http://www.w3.org/2000/svg">
<g clip-path="url(#clip0_1_755)">
<path d="M7.5 2.34375C6.38748 2.34375 5.29995 2.67365 4.37492 3.29173C3.44989 3.90982 2.72892 4.78832 2.30318 5.81616C1.87744 6.84399 1.76604 7.97499 1.98309 9.06613C2.20013 10.1573 2.73586 11.1596 3.52253 11.9462C4.3092 12.7329 5.31148 13.2686 6.40262 13.4857C7.49376 13.7027 8.62476 13.5913 9.6526 13.1656C10.6804 12.7398 11.5589 12.0189 12.177 11.0938C12.7951 10.1688 13.125 9.08127 13.125 7.96875C13.1233 6.47743 12.5301 5.04768 11.4756 3.99316C10.4211 2.93864 8.99132 2.34546 7.5 2.34375ZM10.1754 5.95664L7.83164 8.30039C7.78809 8.34394 7.73639 8.37849 7.67948 8.40206C7.62258 8.42563 7.56159 8.43776 7.5 8.43776C7.43841 8.43776 7.37742 8.42563 7.32052 8.40206C7.26362 8.37849 7.21191 8.34394 7.16836 8.30039C7.12481 8.25684 7.09026 8.20514 7.06669 8.14823C7.04312 8.09133 7.03099 8.03034 7.03099 7.96875C7.03099 7.90716 7.04312 7.84617 7.06669 7.78927C7.09026 7.73236 7.12481 7.68066 7.16836 7.63711L9.51211 5.29336C9.55566 5.24981 9.60737 5.21526 9.66427 5.19169C9.72117 5.16812 9.78216 5.15599 9.84375 5.15599C9.90534 5.15599 9.96633 5.16812 10.0232 5.19169C10.0801 5.21526 10.1318 5.24981 10.1754 5.29336C10.2189 5.33691 10.2535 5.38861 10.2771 5.44552C10.3006 5.50242 10.3128 5.56341 10.3128 5.625C10.3128 5.68659 10.3006 5.74758 10.2771 5.80448C10.2535 5.86139 10.2189 5.91309 10.1754 5.95664ZM5.625 0.9375C5.625 0.81318 5.67439 0.693951 5.7623 0.606044C5.8502 0.518136 5.96943 0.46875 6.09375 0.46875H8.90625C9.03057 0.46875 9.1498 0.518136 9.23771 0.606044C9.32562 0.693951 9.375 0.81318 9.375 0.9375C9.375 1.06182 9.32562 1.18105 9.23771 1.26896C9.1498 1.35686 9.03057 1.40625 8.90625 1.40625H6.09375C5.96943 1.40625 5.8502 1.35686 5.7623 1.26896C5.67439 1.18105 5.625 1.06182 5.625 0.9375Z" fill="white"/>
</g>
<defs>
<clipPath id="clip0_1_755">
<rect width="15" height="15" fill="white"/>
</clipPath>
</defs>
</svg>
